<svg width="764" height="764" viewBox="0 0 764 764" fill="none" xmlns="http://www.w3.org/2000/svg">
<circle cx="382" cy="382" r="382" fill="white"/>
<path d="M30.5031 232.17L232.801 349.278L171.883 604.371C193.067 608.94 216.744 612.263 242.912 614.34C269.08 616.417 294.626 617.455 319.548 617.455C359.424 617.455 393.277 613.301 421.107 604.994C448.936 596.271 471.574 584.848 489.02 570.726C506.465 556.188 519.134 539.78 527.026 521.504C527.242 520.994 527.454 520.483 527.664 519.971L686.908 612.156C617.172 704.396 506.547 764 382 764C171.027 764 0 592.973 0 382C0 328.819 10.8676 278.175 30.5031 232.17Z" fill="#3478DB"/>
<path d="M709.559 578.655C744.122 521.209 764 453.926 764 382C764 171.027 592.973 0 382 0C259.512 0 150.489 57.65 80.5841 147.297C68.6507 162.6 57.8572 178.836 48.3313 195.877L242.581 308.326L271.573 186.922C295.249 182.353 319.964 179.238 345.717 177.576C371.885 175.915 395.769 175.084 417.368 175.084C442.291 175.084 463.682 177.784 481.543 183.184C499.82 188.168 514.565 195.022 525.78 203.745C537.411 212.467 545.926 222.852 551.326 234.898C557.141 246.528 560.048 258.989 560.048 272.281C560.048 281.419 559.01 290.973 556.933 300.942C555.272 310.911 551.533 320.879 545.718 330.848C540.318 340.402 532.634 349.54 522.665 358.263C513.111 366.986 500.443 374.878 484.658 381.939C503.35 390.247 517.057 401.669 525.78 416.207C534.503 430.33 538.865 446.114 538.865 463.56C538.865 468.869 538.585 474.134 538.025 479.356L709.559 578.655Z" fill="#3478DB"/>
<path d="M284.034 535.211L310.825 423.061H378.116C389.331 423.061 398.884 424.515 406.776 427.422C415.084 430.33 421.73 434.068 426.714 438.637C431.699 443.207 435.229 448.399 437.306 454.214C439.798 460.029 441.044 465.844 441.044 471.659C441.044 485.367 437.929 496.582 431.699 505.305C425.468 514.027 417.368 520.881 407.399 525.865C397.846 530.85 386.838 534.381 374.377 536.457C362.331 538.119 350.078 538.95 337.617 538.95C328.894 538.95 319.34 538.742 308.956 538.327C298.987 537.496 290.68 536.457 284.034 535.211Z" fill="#3478DB"/>
<path d="M389.954 350.163H328.894L351.324 255.458C356.309 254.628 363.785 254.005 373.754 253.589C383.723 252.758 393.069 252.343 401.792 252.343C409.684 252.343 417.368 253.174 424.845 254.835C432.322 256.081 438.968 258.366 444.783 261.689C450.598 265.012 455.167 269.581 458.49 275.396C462.228 280.796 464.098 287.442 464.098 295.334C464.098 310.288 457.867 323.164 445.406 333.964C433.36 344.763 414.876 350.163 389.954 350.163Z" fill="#3478DB"/>
</svg>
